SplineFontDB: 3.0
FontName: Kremlin
FullName: Kremlin
FamilyName: Kremlin
Weight: Book
Copyright: 2005 Vic Fieger
Version: 1.0
ItalicAngle: 0
UnderlinePosition: -188
UnderlineWidth: 48
Ascent: 1638
Descent: 410
InvalidEm: 0
sfntRevision: 0x00010000
LayerCount: 3
Layer: 0 1 "Back" 1
Layer: 1 1 "Fore" 0
Layer: 2 0 "Back 2" 1
XUID: [1021 378 536442327 25961]
StyleMap: 0x0000
FSType: 8
OS2Version: 0
OS2_WeightWidthSlopeOnly: 0
OS2_UseTypoMetrics: 0
CreationTime: 935971200
ModificationTime: 1449672517
PfmFamily: 17
TTFWeight: 400
TTFWidth: 5
LineGap: 67
VLineGap: 0
Panose: 2 0 0 0 0 0 0 0 0 0
OS2TypoAscent: 1491
OS2TypoAOffset: 0
OS2TypoDescent: -431
OS2TypoDOffset: 0
OS2TypoLinegap: 307
OS2WinAscent: 1854
OS2WinAOffset: 0
OS2WinDescent: 434
OS2WinDOffset: 0
HheadAscent: 1854
HheadAOffset: 0
HheadDescent: -434
HheadDOffset: 0
OS2SubXSize: 1434
OS2SubYSize: 1331
OS2SubXOff: 0
OS2SubYOff: 283
OS2SupXSize: 1434
OS2SupYSize: 1331
OS2SupXOff: 0
OS2SupYOff: 977
OS2StrikeYSize: 102
OS2StrikeYPos: 530
OS2Vendor: 'HL  '
OS2UnicodeRanges: 00000000.00000000.00000000.00000000
DEI: 91125
ShortTable: maxp 16
  1
  0
  247
  18
  3
  0
  0
  2
  8
  64
  10
  0
  82
  0
  0
  0
EndShort
LangName: 1033 "" "" "Regular" "Kremlin" "" "Version 1.0" "" "2005 Vic Fieger" "High-Logic" "High-Logic - Erwin Denissen 1999" "Template" "http://www.high-logic.com/" "http://www.high-logic.com/"
GaspTable: 1 65535 2 0
Encoding: UnicodeBmp
UnicodeInterp: none
NameList: AGL For New Fonts
DisplaySize: -48
AntiAlias: 1
FitToEm: 0
WinInfo: 1056 16 9
BeginChars: 65539 253

StartChar: .notdef
Encoding: 65536 -1 0
Width: 500
Flags: W
LayerCount: 3
Fore
SplineSet
63 0 m 1,0,-1
 63 1280 l 1,1,-1
 1087 1280 l 1,2,-1
 1087 0 l 1,3,-1
 63 0 l 1,0,-1
95 32 m 1,4,-1
 1055 32 l 1,5,-1
 1055 1248 l 1,6,-1
 95 1248 l 1,7,-1
 95 32 l 1,4,-1
EndSplineSet
EndChar

StartChar: exclam
Encoding: 33 33 4
Width: 519
Flags: W
LayerCount: 3
Fore
SplineSet
15 595 m 1,0,-1
 315 595 l 1,1,-1
 315 1495 l 1,2,-1
 15 1495 l 1,3,-1
 15 595 l 1,0,-1
15 -5 m 1,4,-1
 315 -5 l 1,5,-1
 315 295 l 1,6,-1
 15 295 l 1,7,-1
 15 -5 l 1,4,-1
EndSplineSet
EndChar

StartChar: quotedbl
Encoding: 34 34 5
Width: 1109
Flags: W
LayerCount: 3
Fore
SplineSet
24 895 m 1,0,-1
 324 895 l 1,1,-1
 324 1495 l 1,2,-1
 24 1495 l 1,3,-1
 24 895 l 1,0,-1
624 895 m 1,4,-1
 924 895 l 1,5,-1
 924 1495 l 1,6,-1
 624 1495 l 1,7,-1
 624 895 l 1,4,-1
EndSplineSet
EndChar

StartChar: quotesingle
Encoding: 39 39 10
Width: 509
Flags: W
LayerCount: 3
Fore
SplineSet
24 895 m 1,0,-1
 324 895 l 1,1,-1
 324 1495 l 1,2,-1
 24 1495 l 1,3,-1
 24 895 l 1,0,-1
EndSplineSet
EndChar

StartChar: comma
Encoding: 44 44 15
Width: 509
Flags: W
LayerCount: 3
Fore
SplineSet
24 -305 m 1,0,-1
 324 -305 l 1,1,-1
 324 295 l 1,2,-1
 24 295 l 1,3,-1
 24 -305 l 1,0,-1
EndSplineSet
EndChar

StartChar: hyphen
Encoding: 45 45 16
AltUni2: 002010.ffffffff.0
Width: 819
Flags: W
LayerCount: 3
Fore
SplineSet
24 595 m 1,0,-1
 624 595 l 1,1,-1
 624 895 l 1,2,-1
 24 895 l 1,3,-1
 24 595 l 1,0,-1
EndSplineSet
EndChar

StartChar: period
Encoding: 46 46 17
Width: 509
Flags: W
LayerCount: 3
Fore
SplineSet
24 -5 m 1,0,-1
 324 -5 l 1,1,-1
 324 295 l 1,2,-1
 24 295 l 1,3,-1
 24 -5 l 1,0,-1
EndSplineSet
EndChar

StartChar: zero
Encoding: 48 48 19
Width: 1424
Flags: W
LayerCount: 3
Fore
SplineSet
24 -2 m 1,0,-1
 1241 -2 l 1,1,-1
 1241 1505 l 1,2,-1
 24 1505 l 1,3,-1
 24 -2 l 1,0,-1
785 1159 m 1,4,-1
 370 745 l 1,5,-1
 370 1159 l 1,6,-1
 785 1159 l 1,4,-1
895 344 m 1,7,-1
 522 344 l 1,8,-1
 894 717 l 1,9,-1
 895 344 l 1,7,-1
EndSplineSet
EndChar

StartChar: one
Encoding: 49 49 20
Width: 838
Flags: W
LayerCount: 3
Fore
SplineSet
24 1159 m 1,0,-1
 314 1159 l 1,1,-1
 314 -2 l 1,2,-1
 660 -2 l 1,3,-1
 660 1505 l 1,4,-1
 24 1505 l 1,5,-1
 24 1159 l 1,0,-1
EndSplineSet
EndChar

StartChar: two
Encoding: 50 50 21
Width: 1428
Flags: W
LayerCount: 3
Fore
SplineSet
24 1159 m 1,0,-1
 895 1159 l 1,1,-1
 895 924 l 1,2,-1
 24 924 l 1,3,-1
 24 -2 l 1,4,-1
 1241 -2 l 1,5,-1
 1241 344 l 1,6,-1
 370 344 l 1,7,-1
 370 579 l 1,8,-1
 1241 579 l 1,9,-1
 1241 1505 l 1,10,-1
 24 1505 l 1,11,-1
 24 1159 l 1,0,-1
EndSplineSet
EndChar

StartChar: three
Encoding: 51 51 22
Width: 1426
Flags: W
LayerCount: 3
Fore
SplineSet
24 1159 m 1,0,-1
 716 1159 l 1,1,-1
 301 746 l 1,2,-1
 703 344 l 1,3,-1
 24 344 l 1,4,-1
 24 -2 l 1,5,-1
 1241 -2 l 1,6,-1
 1241 344 l 1,7,-1
 834 753 l 1,8,-1
 1241 1159 l 1,9,-1
 1241 1505 l 1,10,-1
 24 1505 l 1,11,-1
 24 1159 l 1,0,-1
EndSplineSet
EndChar

StartChar: four
Encoding: 52 52 23
Width: 1424
Flags: W
LayerCount: 3
Fore
SplineSet
24 288 m 1,0,-1
 895 288 l 1,1,-1
 895 -2 l 1,2,-1
 1241 -2 l 1,3,-1
 1241 1505 l 1,4,-1
 895 1505 l 1,5,-1
 895 634 l 1,6,-1
 371 634 l 1,7,-1
 370 1505 l 1,8,-1
 24 1505 l 1,9,-1
 24 288 l 1,0,-1
EndSplineSet
EndChar

StartChar: five
Encoding: 53 53 24
Width: 1419
Flags: W
LayerCount: 3
Fore
SplineSet
19 579 m 1,0,-1
 890 579 l 1,1,-1
 890 343 l 1,2,-1
 19 344 l 1,3,-1
 19 -2 l 1,4,-1
 1236 -2 l 1,5,-1
 1236 924 l 1,6,-1
 365 924 l 1,7,-1
 365 1159 l 1,8,-1
 1236 1159 l 1,9,-1
 1234 1505 l 1,10,-1
 19 1505 l 1,11,-1
 19 579 l 1,0,-1
EndSplineSet
EndChar

StartChar: six
Encoding: 54 54 25
Width: 1428
Flags: W
LayerCount: 3
Fore
SplineSet
24 -4 m 1,0,-1
 1242 -4 l 1,1,-1
 1242 924 l 1,2,-1
 370 924 l 1,3,-1
 370 1159 l 1,4,-1
 1242 1159 l 1,5,-1
 1242 1504 l 1,6,-1
 24 1505 l 1,7,-1
 24 -4 l 1,0,-1
896 577 m 1,8,-1
 896 342 l 1,9,-1
 370 342 l 1,10,-1
 370 577 l 1,11,-1
 896 577 l 1,8,-1
EndSplineSet
EndChar

StartChar: seven
Encoding: 55 55 26
Width: 1426
Flags: W
LayerCount: 3
Fore
SplineSet
24 1159 m 5,0,-1
 896 1159 l 5,1,-1
 896 -4 l 5,2,-1
 1242 -4 l 5,3,-1
 1242 1505 l 5,4,-1
 24 1505 l 5,5,-1
 24 1159 l 5,0,-1
EndSplineSet
EndChar

StartChar: eight
Encoding: 56 56 27
Width: 1424
Flags: W
LayerCount: 3
Fore
SplineSet
24 868 m 1,0,-1
 139 758 l 1,1,-1
 24 643 l 1,2,-1
 24 -4 l 1,3,-1
 1242 -4 l 1,4,-1
 1242 633 l 1,5,-1
 1123 749 l 1,6,-1
 1242 867 l 1,7,-1
 1242 1505 l 1,8,-1
 24 1505 l 1,9,-1
 24 868 l 1,0,-1
896 1159 m 1,10,-1
 896 924 l 1,11,-1
 370 924 l 1,12,-1
 370 1159 l 1,13,-1
 896 1159 l 1,10,-1
896 577 m 1,14,-1
 896 342 l 1,15,-1
 370 342 l 1,16,-1
 370 577 l 1,17,-1
 896 577 l 1,14,-1
EndSplineSet
EndChar

StartChar: nine
Encoding: 57 57 28
Width: 1428
Flags: W
LayerCount: 3
Fore
SplineSet
1242 1505 m 1,0,-1
 24 1505 l 1,1,-1
 24 577 l 1,2,-1
 896 577 l 1,3,-1
 896 342 l 1,4,-1
 24 342 l 1,5,-1
 24 -3 l 1,6,-1
 1242 -4 l 1,7,-1
 1242 1505 l 1,0,-1
370 924 m 1,8,-1
 370 1159 l 1,9,-1
 896 1159 l 1,10,-1
 896 924 l 1,11,-1
 370 924 l 1,8,-1
EndSplineSet
EndChar

StartChar: colon
Encoding: 58 58 29
Width: 509
Flags: W
LayerCount: 3
Fore
SplineSet
24 895 m 1,0,-1
 324 895 l 1,1,-1
 324 1195 l 1,2,-1
 24 1195 l 1,3,-1
 24 895 l 1,0,-1
24 -5 m 1,4,-1
 324 -5 l 1,5,-1
 324 295 l 1,6,-1
 24 295 l 1,7,-1
 24 -5 l 1,4,-1
EndSplineSet
EndChar

StartChar: semicolon
Encoding: 59 59 30
Width: 509
Flags: W
LayerCount: 3
Fore
SplineSet
24 895 m 1,0,-1
 324 895 l 1,1,-1
 324 1195 l 1,2,-1
 24 1195 l 1,3,-1
 24 895 l 1,0,-1
24 -305 m 1,4,-1
 324 -305 l 1,5,-1
 324 295 l 1,6,-1
 24 295 l 1,7,-1
 24 -305 l 1,4,-1
EndSplineSet
EndChar

StartChar: question
Encoding: 63 63 34
Width: 1419
Flags: W
LayerCount: 3
Fore
SplineSet
15 1195 m 1,0,-1
 915 1195 l 1,1,-1
 915 895 l 1,2,-1
 458 895 l 1,3,-1
 458 595 l 1,4,-1
 1215 595 l 1,5,-1
 1215 1495 l 1,6,-1
 15 1495 l 1,7,-1
 15 1195 l 1,0,-1
458 -5 m 1,8,-1
 758 -5 l 1,9,-1
 758 295 l 1,10,-1
 458 295 l 1,11,-1
 458 -5 l 1,8,-1
EndSplineSet
EndChar

StartChar: A
Encoding: 65 65 36
Width: 1422
Flags: W
LayerCount: 3
Fore
SplineSet
18 -2 m 1,0,-1
 364 -2 l 1,1,-1
 364 288 l 1,2,-1
 889 288 l 1,3,-1
 889 -2 l 1,4,-1
 1235 -2 l 1,5,-1
 1235 1505 l 1,6,-1
 18 1505 l 1,7,-1
 18 -2 l 1,0,-1
889 1159 m 1,8,-1
 889 634 l 1,9,-1
 364 634 l 1,10,-1
 364 1159 l 1,11,-1
 889 1159 l 1,8,-1
EndSplineSet
EndChar

StartChar: B
Encoding: 66 66 37
Width: 1420
Flags: W
LayerCount: 3
Fore
SplineSet
18 -2 m 1,0,-1
 1235 -2 l 1,1,-1
 1235 644 l 1,2,-1
 1124 758 l 1,3,-1
 1238 872 l 1,4,-1
 1235 1505 l 1,5,-1
 18 1505 l 1,6,-1
 18 -2 l 1,0,-1
889 1159 m 1,7,-1
 889 924 l 1,8,-1
 364 924 l 1,9,-1
 364 1159 l 1,10,-1
 889 1159 l 1,7,-1
889 579 m 1,11,-1
 889 344 l 1,12,-1
 364 344 l 1,13,-1
 364 579 l 1,14,-1
 889 579 l 1,11,-1
EndSplineSet
EndChar

StartChar: C
Encoding: 67 67 38
Width: 1418
Flags: W
LayerCount: 3
Fore
SplineSet
18 -2 m 1,0,-1
 1235 -2 l 1,1,-1
 1235 344 l 1,2,-1
 364 344 l 1,3,-1
 366 1159 l 1,4,-1
 1235 1159 l 1,5,-1
 1235 1505 l 1,6,-1
 18 1505 l 1,7,-1
 18 -2 l 1,0,-1
EndSplineSet
EndChar

StartChar: D
Encoding: 68 68 39
Width: 1422
Flags: W
LayerCount: 3
Fore
SplineSet
18 -2 m 1,0,-1
 958 -2 l 1,1,-1
 1235 275 l 1,2,-1
 1235 1228 l 1,3,-1
 958 1505 l 1,4,-1
 18 1505 l 1,5,-1
 18 -2 l 1,0,-1
889 1159 m 1,6,-1
 889 344 l 1,7,-1
 364 344 l 1,8,-1
 364 1159 l 1,9,-1
 889 1159 l 1,6,-1
EndSplineSet
EndChar

StartChar: E
Encoding: 69 69 40
Width: 1422
Flags: W
LayerCount: 3
Fore
SplineSet
18 -2 m 1,0,-1
 1235 -2 l 1,1,-1
 1235 344 l 1,2,-1
 376 344 l 1,3,-1
 378 579 l 1,4,-1
 945 579 l 1,5,-1
 945 924 l 1,6,-1
 364 924 l 1,7,-1
 364 1159 l 1,8,-1
 1235 1159 l 1,9,-1
 1235 1505 l 1,10,-1
 18 1505 l 1,11,-1
 18 -2 l 1,0,-1
EndSplineSet
EndChar

StartChar: F
Encoding: 70 70 41
Width: 1420
Flags: W
LayerCount: 3
Fore
SplineSet
18 -2 m 1,0,-1
 364 -2 l 1,1,-1
 364 579 l 1,2,-1
 945 579 l 1,3,-1
 945 924 l 1,4,-1
 364 924 l 1,5,-1
 364 1159 l 1,6,-1
 1235 1159 l 1,7,-1
 1235 1505 l 1,8,-1
 18 1505 l 1,9,-1
 18 -2 l 1,0,-1
EndSplineSet
EndChar

StartChar: G
Encoding: 71 71 42
Width: 1418
Flags: W
LayerCount: 3
Fore
SplineSet
18 -2 m 1,0,-1
 1235 -2 l 1,1,-1
 1235 924 l 1,2,-1
 889 924 l 1,3,-1
 889 344 l 1,4,-1
 364 344 l 1,5,-1
 364 1159 l 1,6,-1
 1235 1159 l 1,7,-1
 1235 1505 l 1,8,-1
 18 1505 l 1,9,-1
 18 -2 l 1,0,-1
EndSplineSet
EndChar

StartChar: H
Encoding: 72 72 43
Width: 1422
Flags: W
LayerCount: 3
Fore
SplineSet
18 -2 m 1,0,-1
 366 -2 l 1,1,-1
 366 583 l 1,2,-1
 895 583 l 1,3,-1
 895 -2 l 1,4,-1
 1243 -2 l 1,5,-1
 1243 1515 l 1,6,-1
 895 1515 l 1,7,-1
 895 930 l 1,8,-1
 366 930 l 1,9,-1
 366 1515 l 1,10,-1
 18 1515 l 1,11,-1
 18 -2 l 1,0,-1
EndSplineSet
EndChar

StartChar: I
Encoding: 73 73 44
Width: 572
Flags: W
LayerCount: 3
Fore
SplineSet
18 -4 m 1,0,-1
 364 -4 l 1,1,-1
 364 1505 l 1,2,-1
 18 1505 l 1,3,-1
 18 -4 l 1,0,-1
EndSplineSet
EndChar

StartChar: J
Encoding: 74 74 45
Width: 1420
Flags: W
LayerCount: 3
Fore
SplineSet
890 342 m 1,0,-1
 364 342 l 1,1,-1
 364 633 l 1,2,-1
 18 633 l 1,3,-1
 18 -4 l 1,4,-1
 1238 -4 l 1,5,-1
 1236 1505 l 1,6,-1
 890 1505 l 1,7,-1
 890 342 l 1,0,-1
EndSplineSet
EndChar

StartChar: K
Encoding: 75 75 46
Width: 1418
Flags: W
LayerCount: 3
Fore
SplineSet
18 -4 m 1,0,-1
 364 -4 l 1,1,-1
 364 522 l 1,2,-1
 890 -4 l 1,3,-1
 1236 -4 l 1,4,-1
 1236 200 l 1,5,-1
 686 748 l 1,6,-1
 1236 1297 l 1,7,-1
 1236 1505 l 1,8,-1
 890 1505 l 1,9,-1
 364 979 l 1,10,-1
 364 1505 l 1,11,-1
 18 1505 l 1,12,-1
 18 -4 l 1,0,-1
EndSplineSet
EndChar

StartChar: L
Encoding: 76 76 47
Width: 1422
Flags: W
LayerCount: 3
Fore
SplineSet
18 -4 m 1,0,-1
 1236 -4 l 1,1,-1
 1236 342 l 1,2,-1
 364 342 l 1,3,-1
 364 1505 l 1,4,-1
 18 1505 l 1,5,-1
 18 -4 l 1,0,-1
EndSplineSet
EndChar

StartChar: M
Encoding: 77 77 48
Width: 1419
Flags: W
LayerCount: 3
Fore
SplineSet
15 -2 m 1,0,-1
 361 -2 l 1,1,-1
 361 800 l 1,2,-1
 582 579 l 1,3,-1
 665 579 l 1,4,-1
 886 800 l 1,5,-1
 886 -2 l 1,6,-1
 1232 -2 l 1,7,-1
 1232 1505 l 1,8,-1
 1011 1505 l 1,9,-1
 627 1122 l 1,10,-1
 240 1505 l 1,11,-1
 15 1505 l 1,12,-1
 15 -2 l 1,0,-1
EndSplineSet
EndChar

StartChar: N
Encoding: 78 78 49
Width: 1419
Flags: W
LayerCount: 3
Fore
SplineSet
17 -2 m 1,0,-1
 363 -2 l 1,1,-1
 363 817 l 1,2,-1
 888 288 l 1,3,-1
 888 -2 l 1,4,-1
 1234 -2 l 1,5,-1
 1234 1505 l 1,6,-1
 888 1505 l 1,7,-1
 888 824 l 1,8,-1
 363 1353 l 1,9,-1
 363 1505 l 1,10,-1
 17 1505 l 1,11,-1
 17 -2 l 1,0,-1
EndSplineSet
EndChar

StartChar: O
Encoding: 79 79 50
Width: 1419
Flags: W
LayerCount: 3
Fore
SplineSet
19 -2 m 1,0,-1
 1236 -2 l 1,1,-1
 1236 1505 l 1,2,-1
 19 1505 l 1,3,-1
 19 -2 l 1,0,-1
890 1159 m 1,4,-1
 890 344 l 1,5,-1
 366 344 l 1,6,-1
 365 1159 l 1,7,-1
 890 1159 l 1,4,-1
EndSplineSet
EndChar

StartChar: P
Encoding: 80 80 51
Width: 1419
Flags: W
LayerCount: 3
Fore
SplineSet
15 -2 m 1,0,-1
 361 -2 l 1,1,-1
 361 579 l 1,2,-1
 1232 579 l 1,3,-1
 1232 1505 l 1,4,-1
 15 1505 l 1,5,-1
 15 -2 l 1,0,-1
886 1159 m 1,6,-1
 886 924 l 1,7,-1
 361 924 l 1,8,-1
 361 1159 l 1,9,-1
 886 1159 l 1,6,-1
EndSplineSet
EndChar

StartChar: Q
Encoding: 81 81 52
Width: 1424
Flags: W
LayerCount: 3
Fore
SplineSet
19 -4 m 1,0,-1
 987 -3 l 1,1,-1
 987 -294 l 1,2,-1
 1333 -294 l 1,3,-1
 1332 342 l 1,4,-1
 1238 342 l 1,5,-1
 1238 1505 l 1,6,-1
 19 1505 l 1,7,-1
 19 -4 l 1,0,-1
892 1159 m 1,8,-1
 892 342 l 1,9,-1
 368 342 l 1,10,-1
 365 1159 l 1,11,-1
 892 1159 l 1,8,-1
EndSplineSet
EndChar

StartChar: R
Encoding: 82 82 53
Width: 1419
Flags: W
LayerCount: 3
Fore
SplineSet
17 -2 m 1,0,-1
 363 -2 l 1,1,-1
 363 527 l 1,2,-1
 888 -2 l 1,3,-1
 1234 -2 l 1,4,-1
 1234 205 l 1,5,-1
 861 579 l 1,6,-1
 1234 579 l 1,7,-1
 1234 1505 l 1,8,-1
 17 1505 l 1,9,-1
 17 -2 l 1,0,-1
888 1159 m 1,10,-1
 888 924 l 1,11,-1
 363 924 l 1,12,-1
 363 1159 l 1,13,-1
 888 1159 l 1,10,-1
EndSplineSet
EndChar

StartChar: S
Encoding: 83 83 54
Width: 1419
Flags: W
LayerCount: 3
Fore
SplineSet
19 579 m 1,0,-1
 890 579 l 1,1,-1
 890 343 l 1,2,-1
 19 344 l 1,3,-1
 19 -2 l 1,4,-1
 1236 -2 l 1,5,-1
 1236 924 l 1,6,-1
 365 924 l 1,7,-1
 365 1159 l 1,8,-1
 1236 1159 l 1,9,-1
 1234 1505 l 1,10,-1
 19 1505 l 1,11,-1
 19 579 l 1,0,-1
EndSplineSet
EndChar

StartChar: T
Encoding: 84 84 55
Width: 1419
Flags: W
LayerCount: 3
Fore
SplineSet
15 1159 m 1,0,-1
 458 1159 l 1,1,-1
 458 -2 l 1,2,-1
 803 -2 l 1,3,-1
 803 1159 l 1,4,-1
 1232 1159 l 1,5,-1
 1232 1505 l 1,6,-1
 15 1505 l 1,7,-1
 15 1159 l 1,0,-1
EndSplineSet
EndChar

StartChar: U
Encoding: 85 85 56
Width: 1419
Flags: W
LayerCount: 3
Fore
SplineSet
15 -4 m 1,0,-1
 1233 -4 l 1,1,-1
 1233 1505 l 1,2,-1
 887 1505 l 1,3,-1
 887 342 l 1,4,-1
 362 342 l 1,5,-1
 361 1505 l 1,6,-1
 15 1505 l 1,7,-1
 15 -4 l 1,0,-1
EndSplineSet
EndChar

StartChar: V
Encoding: 86 86 57
Width: 1419
Flags: W
LayerCount: 3
Fore
SplineSet
17 1325 m 1,0,-1
 446 -4 l 1,1,-1
 806 -4 l 1,2,-1
 1242 1317 l 1,3,-1
 1244 1505 l 1,4,-1
 889 1505 l 1,5,-1
 632 605 l 1,6,-1
 363 1505 l 1,7,-1
 17 1505 l 1,8,-1
 17 1325 l 1,0,-1
EndSplineSet
EndChar

StartChar: W
Encoding: 87 87 58
Width: 1719
Flags: W
LayerCount: 3
Fore
SplineSet
19 -4 m 1,0,-1
 1528 -4 l 1,1,-1
 1528 1505 l 1,2,-1
 1182 1505 l 1,3,-1
 1182 342 l 1,4,-1
 947 342 l 1,5,-1
 947 1505 l 1,6,-1
 600 1505 l 1,7,-1
 600 342 l 1,8,-1
 365 342 l 1,9,-1
 365 1505 l 1,10,-1
 19 1505 l 1,11,-1
 19 -4 l 1,0,-1
EndSplineSet
EndChar

StartChar: X
Encoding: 88 88 59
Width: 1404
Flags: W
LayerCount: 3
Fore
SplineSet
0 1297 m 1,0,-1
 374 744 l 1,1,-1
 0 204 l 1,2,-1
 0 -4 l 1,3,-1
 346 -4 l 1,4,-1
 608 401 l 1,5,-1
 872 -4 l 1,6,-1
 1218 -4 l 1,7,-1
 1218 204 l 1,8,-1
 844 757 l 1,9,-1
 1218 1297 l 1,10,-1
 1218 1505 l 1,11,-1
 872 1505 l 1,12,-1
 615 1092 l 1,13,-1
 346 1505 l 1,14,-1
 0 1505 l 1,15,-1
 0 1297 l 1,0,-1
EndSplineSet
EndChar

StartChar: Y
Encoding: 89 89 60
Width: 1428
Flags: W
LayerCount: 3
Fore
SplineSet
24 579 m 1,0,-1
 895 579 l 1,1,-1
 894 344 l 1,2,-1
 24 344 l 1,3,-1
 24 -2 l 1,4,-1
 1241 -2 l 1,5,-1
 1241 1505 l 1,6,-1
 895 1505 l 1,7,-1
 895 924 l 1,8,-1
 370 924 l 1,9,-1
 370 1505 l 1,10,-1
 24 1505 l 1,11,-1
 24 579 l 1,0,-1
EndSplineSet
EndChar

StartChar: Z
Encoding: 90 90 61
Width: 1426
Flags: W
LayerCount: 3
Fore
SplineSet
24 1159 m 1,0,-1
 826 1159 l 1,1,-1
 24 496 l 1,2,-1
 24 -2 l 1,3,-1
 1241 -2 l 1,4,-1
 1241 344 l 1,5,-1
 439 344 l 1,6,-1
 1241 1007 l 1,7,-1
 1241 1505 l 1,8,-1
 24 1505 l 1,9,-1
 24 1159 l 1,0,-1
EndSplineSet
EndChar

StartChar: a
Encoding: 97 97 68
Width: 1422
Flags: W
LayerCount: 3
Fore
SplineSet
18 -2 m 1,0,-1
 364 -2 l 1,1,-1
 364 288 l 1,2,-1
 889 288 l 1,3,-1
 889 -2 l 1,4,-1
 1235 -2 l 1,5,-1
 1235 1505 l 1,6,-1
 18 1505 l 1,7,-1
 18 -2 l 1,0,-1
889 1159 m 1,8,-1
 889 634 l 1,9,-1
 364 634 l 1,10,-1
 364 1159 l 1,11,-1
 889 1159 l 1,8,-1
EndSplineSet
EndChar

StartChar: b
Encoding: 98 98 69
Width: 1419
Flags: W
LayerCount: 3
Fore
SplineSet
15 -2 m 1,0,-1
 1232 -2 l 1,1,-1
 1232 924 l 1,2,-1
 361 924 l 1,3,-1
 361 1159 l 1,4,-1
 1232 1159 l 1,5,-1
 1232 1505 l 1,6,-1
 15 1505 l 1,7,-1
 15 -2 l 1,0,-1
886 579 m 1,8,-1
 886 344 l 1,9,-1
 361 344 l 1,10,-1
 361 579 l 1,11,-1
 886 579 l 1,8,-1
EndSplineSet
EndChar

StartChar: c
Encoding: 99 99 70
Width: 1418
Flags: W
LayerCount: 3
Fore
SplineSet
18 -2 m 1,0,-1
 1235 -2 l 1,1,-1
 1235 344 l 1,2,-1
 364 344 l 1,3,-1
 366 1159 l 1,4,-1
 1235 1159 l 1,5,-1
 1235 1505 l 1,6,-1
 18 1505 l 1,7,-1
 18 -2 l 1,0,-1
EndSplineSet
EndChar

StartChar: d
Encoding: 100 100 71
Width: 1422
Flags: W
LayerCount: 3
Fore
SplineSet
18 -2 m 1,0,-1
 958 -2 l 1,1,-1
 1235 275 l 1,2,-1
 1235 1228 l 1,3,-1
 958 1505 l 1,4,-1
 18 1505 l 1,5,-1
 18 -2 l 1,0,-1
889 1159 m 1,6,-1
 889 344 l 1,7,-1
 364 344 l 1,8,-1
 364 1159 l 1,9,-1
 889 1159 l 1,6,-1
EndSplineSet
EndChar

StartChar: e
Encoding: 101 101 72
Width: 1422
Flags: W
LayerCount: 3
Fore
SplineSet
1235 1505 m 1,0,-1
 18 1505 l 1,1,-1
 18 1159 l 1,2,-1
 889 1159 l 1,3,-1
 889 924 l 1,4,-1
 308 924 l 1,5,-1
 308 579 l 1,6,-1
 875 579 l 1,7,-1
 877 344 l 1,8,-1
 18 344 l 1,9,-1
 18 -2 l 1,10,-1
 1235 -2 l 1,11,-1
 1235 1505 l 1,0,-1
EndSplineSet
EndChar

StartChar: f
Encoding: 102 102 73
Width: 1420
Flags: W
LayerCount: 3
Fore
SplineSet
365 1158 m 1,0,-1
 891 1158 l 1,1,-1
 891 867 l 1,2,-1
 1237 867 l 1,3,-1
 1237 1504 l 1,4,-1
 16 1504 l 1,5,-1
 19 -5 l 1,6,-1
 365 -5 l 1,7,-1
 365 1158 l 1,0,-1
EndSplineSet
EndChar

StartChar: g
Encoding: 103 103 74
Width: 1418
Flags: W
LayerCount: 3
Fore
SplineSet
18 -2 m 1,0,-1
 1235 -2 l 1,1,-1
 1235 924 l 1,2,-1
 889 924 l 1,3,-1
 889 344 l 1,4,-1
 364 344 l 1,5,-1
 364 1159 l 1,6,-1
 1235 1159 l 1,7,-1
 1235 1505 l 1,8,-1
 18 1505 l 1,9,-1
 18 -2 l 1,0,-1
EndSplineSet
EndChar

StartChar: h
Encoding: 104 104 75
Width: 1422
Flags: W
LayerCount: 3
Fore
SplineSet
18 -2 m 1,0,-1
 366 -2 l 1,1,-1
 366 583 l 1,2,-1
 895 583 l 1,3,-1
 895 -2 l 1,4,-1
 1243 -2 l 1,5,-1
 1243 1515 l 1,6,-1
 895 1515 l 1,7,-1
 895 930 l 1,8,-1
 366 930 l 1,9,-1
 366 1515 l 1,10,-1
 18 1515 l 1,11,-1
 18 -2 l 1,0,-1
EndSplineSet
EndChar

StartChar: i
Encoding: 105 105 76
Width: 572
Flags: W
LayerCount: 3
Fore
SplineSet
18 -4 m 1,0,-1
 364 -4 l 1,1,-1
 364 1505 l 1,2,-1
 18 1505 l 1,3,-1
 18 -4 l 1,0,-1
EndSplineSet
EndChar

StartChar: j
Encoding: 106 106 77
Width: 1420
Flags: W
LayerCount: 3
Fore
SplineSet
890 342 m 1,0,-1
 364 342 l 1,1,-1
 364 633 l 1,2,-1
 18 633 l 1,3,-1
 18 -4 l 1,4,-1
 1238 -4 l 1,5,-1
 1236 1505 l 1,6,-1
 890 1505 l 1,7,-1
 890 342 l 1,0,-1
EndSplineSet
EndChar

StartChar: k
Encoding: 107 107 78
Width: 1418
Flags: W
LayerCount: 3
Fore
SplineSet
1236 1505 m 1,0,-1
 890 1505 l 1,1,-1
 890 979 l 1,2,-1
 364 1505 l 1,3,-1
 18 1505 l 1,4,-1
 18 1297 l 1,5,-1
 568 748 l 1,6,-1
 18 200 l 1,7,-1
 18 -4 l 1,8,-1
 364 -4 l 1,9,-1
 890 522 l 1,10,-1
 890 -4 l 1,11,-1
 1236 -4 l 1,12,-1
 1236 1505 l 1,0,-1
EndSplineSet
EndChar

StartChar: l
Encoding: 108 108 79
Width: 1422
Flags: W
LayerCount: 3
Fore
SplineSet
18 -4 m 1,0,-1
 1236 -4 l 1,1,-1
 1236 342 l 1,2,-1
 364 342 l 1,3,-1
 364 1505 l 1,4,-1
 18 1505 l 1,5,-1
 18 -4 l 1,0,-1
EndSplineSet
EndChar

StartChar: m
Encoding: 109 109 80
Width: 1419
Flags: W
LayerCount: 3
Fore
SplineSet
15 -2 m 1,0,-1
 361 -2 l 1,1,-1
 361 800 l 1,2,-1
 582 579 l 1,3,-1
 665 579 l 1,4,-1
 886 800 l 1,5,-1
 886 -2 l 1,6,-1
 1232 -2 l 1,7,-1
 1232 1505 l 1,8,-1
 1011 1505 l 1,9,-1
 627 1122 l 1,10,-1
 240 1505 l 1,11,-1
 15 1505 l 1,12,-1
 15 -2 l 1,0,-1
EndSplineSet
EndChar

StartChar: n
Encoding: 110 110 81
Width: 1419
Flags: W
LayerCount: 3
Fore
SplineSet
1234 1505 m 1,0,-1
 888 1505 l 1,1,-1
 888 1353 l 1,2,-1
 363 824 l 1,3,-1
 363 1505 l 1,4,-1
 17 1505 l 1,5,-1
 17 -2 l 1,6,-1
 363 -2 l 1,7,-1
 363 288 l 1,8,-1
 888 817 l 1,9,-1
 888 -2 l 1,10,-1
 1234 -2 l 1,11,-1
 1234 1505 l 1,0,-1
EndSplineSet
EndChar

StartChar: o
Encoding: 111 111 82
Width: 1419
Flags: W
LayerCount: 3
Fore
SplineSet
19 -2 m 1,0,-1
 1236 -2 l 1,1,-1
 1236 1505 l 1,2,-1
 19 1505 l 1,3,-1
 19 -2 l 1,0,-1
890 1159 m 1,4,-1
 890 344 l 1,5,-1
 366 344 l 1,6,-1
 365 1159 l 1,7,-1
 890 1159 l 1,4,-1
EndSplineSet
EndChar

StartChar: p
Encoding: 112 112 83
Width: 1419
Flags: W
LayerCount: 3
Fore
SplineSet
15 -2 m 1,0,-1
 361 -2 l 1,1,-1
 361 579 l 1,2,-1
 1232 579 l 1,3,-1
 1232 1505 l 1,4,-1
 15 1505 l 1,5,-1
 15 -2 l 1,0,-1
886 1159 m 1,6,-1
 886 924 l 1,7,-1
 361 924 l 1,8,-1
 361 1159 l 1,9,-1
 886 1159 l 1,6,-1
EndSplineSet
EndChar

StartChar: q
Encoding: 113 113 84
Width: 1424
Flags: W
LayerCount: 3
Fore
SplineSet
19 -4 m 1,0,-1
 987 -3 l 1,1,-1
 987 -294 l 1,2,-1
 1333 -294 l 1,3,-1
 1332 342 l 1,4,-1
 1238 342 l 1,5,-1
 1238 1505 l 1,6,-1
 19 1505 l 1,7,-1
 19 -4 l 1,0,-1
892 1159 m 1,8,-1
 892 342 l 1,9,-1
 368 342 l 1,10,-1
 365 1159 l 1,11,-1
 892 1159 l 1,8,-1
EndSplineSet
EndChar

StartChar: r
Encoding: 114 114 85
Width: 1419
Flags: W
LayerCount: 3
Fore
SplineSet
1234 1505 m 1,0,-1
 17 1505 l 1,1,-1
 17 579 l 1,2,-1
 390 579 l 1,3,-1
 17 205 l 1,4,-1
 17 -2 l 1,5,-1
 363 -2 l 1,6,-1
 888 527 l 1,7,-1
 888 -2 l 1,8,-1
 1234 -2 l 1,9,-1
 1234 1505 l 1,0,-1
888 1159 m 1,10,-1
 888 924 l 1,11,-1
 363 924 l 1,12,-1
 363 1159 l 1,13,-1
 888 1159 l 1,10,-1
EndSplineSet
EndChar

StartChar: s
Encoding: 115 115 86
Width: 1419
Flags: W
LayerCount: 3
Fore
SplineSet
19 579 m 1,0,-1
 890 579 l 1,1,-1
 890 343 l 1,2,-1
 19 344 l 1,3,-1
 19 -2 l 1,4,-1
 1236 -2 l 1,5,-1
 1236 924 l 1,6,-1
 365 924 l 1,7,-1
 365 1159 l 1,8,-1
 1236 1159 l 1,9,-1
 1234 1505 l 1,10,-1
 19 1505 l 1,11,-1
 19 579 l 1,0,-1
EndSplineSet
EndChar

StartChar: t
Encoding: 116 116 87
Width: 1419
Flags: W
LayerCount: 3
Fore
SplineSet
15 1159 m 1,0,-1
 458 1159 l 1,1,-1
 458 -2 l 1,2,-1
 803 -2 l 1,3,-1
 803 1159 l 1,4,-1
 1232 1159 l 1,5,-1
 1232 1505 l 1,6,-1
 15 1505 l 1,7,-1
 15 1159 l 1,0,-1
EndSplineSet
EndChar

StartChar: u
Encoding: 117 117 88
Width: 1424
Flags: W
LayerCount: 3
Fore
SplineSet
892 342 m 1,0,-1
 368 342 l 1,1,-1
 368 1505 l 1,2,-1
 19 1505 l 1,3,-1
 19 -4 l 1,4,-1
 987 -3 l 1,5,-1
 987 -294 l 1,6,-1
 1333 -294 l 1,7,-1
 1332 342 l 1,8,-1
 1238 342 l 1,9,-1
 1238 1505 l 1,10,-1
 893 1505 l 1,11,-1
 892 342 l 1,0,-1
EndSplineSet
EndChar

StartChar: v
Encoding: 118 118 89
Width: 1419
Flags: W
LayerCount: 3
Fore
SplineSet
17 1325 m 1,0,-1
 446 -4 l 1,1,-1
 806 -4 l 1,2,-1
 1242 1317 l 1,3,-1
 1244 1505 l 1,4,-1
 889 1505 l 1,5,-1
 632 605 l 1,6,-1
 363 1505 l 1,7,-1
 17 1505 l 1,8,-1
 17 1325 l 1,0,-1
EndSplineSet
EndChar

StartChar: w
Encoding: 119 119 90
Width: 1719
Flags: W
LayerCount: 3
Fore
SplineSet
1276 -4 m 1,0,-1
 1276 -294 l 1,1,-1
 1622 -294 l 1,2,-1
 1621 342 l 1,3,-1
 1527 342 l 1,4,-1
 1527 1505 l 1,5,-1
 1182 1505 l 1,6,-1
 1182 1504 l 1,7,-1
 1181 1504 l 1,8,-1
 1181 342 l 1,9,-1
 947 342 l 1,10,-1
 947 1505 l 1,11,-1
 600 1505 l 1,12,-1
 600 342 l 1,13,-1
 365 342 l 1,14,-1
 365 1505 l 1,15,-1
 19 1505 l 1,16,-1
 19 -4 l 1,17,-1
 1276 -4 l 1,0,-1
EndSplineSet
EndChar

StartChar: x
Encoding: 120 120 91
Width: 1404
Flags: W
LayerCount: 3
Fore
SplineSet
0 1297 m 1,0,-1
 374 744 l 1,1,-1
 0 204 l 1,2,-1
 0 -4 l 1,3,-1
 346 -4 l 1,4,-1
 608 401 l 1,5,-1
 872 -4 l 1,6,-1
 1218 -4 l 1,7,-1
 1218 204 l 1,8,-1
 844 757 l 1,9,-1
 1218 1297 l 1,10,-1
 1218 1505 l 1,11,-1
 872 1505 l 1,12,-1
 615 1092 l 1,13,-1
 346 1505 l 1,14,-1
 0 1505 l 1,15,-1
 0 1297 l 1,0,-1
EndSplineSet
EndChar

StartChar: y
Encoding: 121 121 92
Width: 1428
Flags: W
LayerCount: 3
Fore
SplineSet
24 579 m 1,0,-1
 895 579 l 1,1,-1
 894 344 l 1,2,-1
 24 344 l 1,3,-1
 24 -2 l 1,4,-1
 1241 -2 l 1,5,-1
 1241 1505 l 1,6,-1
 895 1505 l 1,7,-1
 895 924 l 1,8,-1
 370 924 l 1,9,-1
 370 1505 l 1,10,-1
 24 1505 l 1,11,-1
 24 579 l 1,0,-1
EndSplineSet
EndChar

StartChar: z
Encoding: 122 122 93
Width: 1426
Flags: W
LayerCount: 3
Fore
SplineSet
24 1159 m 1,0,-1
 826 1159 l 1,1,-1
 24 496 l 1,2,-1
 24 -2 l 1,3,-1
 1241 -2 l 1,4,-1
 1241 344 l 1,5,-1
 439 344 l 1,6,-1
 1241 1007 l 1,7,-1
 1241 1505 l 1,8,-1
 24 1505 l 1,9,-1
 24 1159 l 1,0,-1
EndSplineSet
EndChar

StartChar: uni0410
Encoding: 1040 1040 247
Width: 1422
Flags: W
LayerCount: 3
Fore
SplineSet
18 -2 m 5,0,-1
 364 -2 l 5,1,-1
 364 288 l 5,2,-1
 889 288 l 5,3,-1
 889 -2 l 5,4,-1
 1235 -2 l 5,5,-1
 1235 1505 l 5,6,-1
 18 1505 l 5,7,-1
 18 -2 l 5,0,-1
889 1159 m 5,8,-1
 889 634 l 5,9,-1
 364 634 l 5,10,-1
 364 1159 l 5,11,-1
 889 1159 l 5,8,-1
EndSplineSet
EndChar

StartChar: uni041F
Encoding: 1055 1055 249
Width: 1419
Flags: W
LayerCount: 3
Fore
SplineSet
103 1518 m 1,0,-1
 1321 1518 l 1,1,-1
 1321 9 l 1,2,-1
 975 9 l 1,3,-1
 975 1172 l 1,4,-1
 450 1172 l 1,5,-1
 449 9 l 1,6,-1
 103 9 l 1,7,-1
 103 1518 l 1,0,-1
EndSplineSet
EndChar

StartChar: uni0430
Encoding: 1072 1072 250
Width: 1422
Flags: W
LayerCount: 3
Fore
SplineSet
18 -2 m 5,0,-1
 364 -2 l 5,1,-1
 364 288 l 5,2,-1
 889 288 l 5,3,-1
 889 -2 l 5,4,-1
 1235 -2 l 5,5,-1
 1235 1505 l 5,6,-1
 18 1505 l 5,7,-1
 18 -2 l 5,0,-1
889 1159 m 5,8,-1
 889 634 l 5,9,-1
 364 634 l 5,10,-1
 364 1159 l 5,11,-1
 889 1159 l 5,8,-1
EndSplineSet
EndChar

StartChar: uni0411
Encoding: 1041 1041 251
Width: 1419
Flags: W
LayerCount: 3
Fore
SplineSet
15 -2 m 5,0,-1
 1232 -2 l 5,1,-1
 1232 924 l 5,2,-1
 361 924 l 5,3,-1
 361 1159 l 5,4,-1
 1232 1159 l 5,5,-1
 1232 1505 l 5,6,-1
 15 1505 l 5,7,-1
 15 -2 l 5,0,-1
886 579 m 5,8,-1
 886 344 l 5,9,-1
 361 344 l 5,10,-1
 361 579 l 5,11,-1
 886 579 l 5,8,-1
EndSplineSet
EndChar

StartChar: uni0431
Encoding: 1073 1073 252
Width: 1419
Flags: W
LayerCount: 3
Fore
SplineSet
15 -2 m 5,0,-1
 1232 -2 l 5,1,-1
 1232 924 l 5,2,-1
 361 924 l 5,3,-1
 361 1159 l 5,4,-1
 1232 1159 l 5,5,-1
 1232 1505 l 5,6,-1
 15 1505 l 5,7,-1
 15 -2 l 5,0,-1
886 579 m 5,8,-1
 886 344 l 5,9,-1
 361 344 l 5,10,-1
 361 579 l 5,11,-1
 886 579 l 5,8,-1
EndSplineSet
EndChar
